<?xml version="1.0" encoding="utf-8" standalone="no"?>
<!DOCTYPE svg PUBLIC "-//W3C//DTD SVG 1.1//EN" "http://www.w3.org/Graphics/SVG/1.1/DTD/svg11.dtd">
<svg xmlns="http://www.w3.org/2000/svg" xmlns:xl="http://www.w3.org/1999/xlink" version="1.1" viewBox="-11 -12 201 221" width="201pt" height="221pt" xmlns:dc="http://purl.org/dc/elements/1.1/"><metadata> Produced by OmniGraffle 6.1.1 <dc:date>2013-10-11 19:03:20 +0000</dc:date></metadata><defs/><g stroke="none" stroke-opacity="1" stroke-dasharray="none" fill="none" fill-opacity="1"><title>Canvas 1</title><rect fill="white" width="576" height="733"/><g><title>Layer 1</title><path d="M 132 75.044702 L 132 75.044702 C 149.67311 75.044702 164 89.37159 164 107.0447 L 164 131.0447 C 164 148.71781 149.67311 163.0447 132 163.0447 L 46 163.0447 C 28.326888 163.0447 14 148.71781 14 131.0447 L 14 107.0447 C 14 89.37159 28.326888 75.044702 46 75.044702 L 132 75.044702 Z M 47.924613 173.12009 C 52.025136 177.22059 52.025136 183.86881 47.924613 187.96932 C 43.82411 192.06984 37.17589 192.06984 33.075387 187.96932 C 28.974864 183.86881 28.974864 177.22059 33.075387 173.12009 C 37.17589 169.01957 43.82411 169.01957 47.924613 173.12009 M 147.92461 173.12009 C 152.02514 177.22059 152.02514 183.86881 147.92461 187.96932 C 143.82411 192.06984 137.17589 192.06984 133.07539 187.96932 C 128.974864 183.86881 128.974864 177.22059 133.07539 173.12009 C 137.17589 169.01957 143.82411 169.01957 147.92461 173.12009 M 75.14008 57.044702 L 32 57.044702 C 14.326888 57.044702 0 71.37159 0 89.0447 L 0 165.0447 C 0 182.71781 14.326888 197.0447 32 197.0447 L 147 197.0447 C 164.67311 197.0447 179 182.71781 179 165.0447 L 179 89.0447 C 179 71.37159 164.67311 57.044702 147 57.044702 C 147 57.044702 147 57.044702 147 57.044702 L 106.222584 57.044702 L 125.590835 8.928932 C 126.931345 5.5987574 125.3184 1.8124197 121.98823 .47190995 C 118.658054 -.86859976 114.871716 .74434234 113.531206 4.074517 L 92.208886 57.044704 L 91.51634 57.044702 L 55.417406 9.922948 C 53.234285 7.0732093 49.154346 6.5328095 46.304607 8.715931 L 46.304607 8.715931 L 46.304607 8.715931 C 43.454869 10.8990525 42.91447 14.978992 45.09759 17.82873 C 45.09759 17.82873 45.09759 17.82873 45.09759 17.82873 Z" fill="#878787"/><path d="M 132 75.044702 L 132 75.044702 C 149.67311 75.044702 164 89.37159 164 107.0447 L 164 131.0447 C 164 148.71781 149.67311 163.0447 132 163.0447 L 46 163.0447 C 28.326888 163.0447 14 148.71781 14 131.0447 L 14 107.0447 C 14 89.37159 28.326888 75.044702 46 75.044702 L 132 75.044702 Z M 47.924613 173.12009 C 52.025136 177.22059 52.025136 183.86881 47.924613 187.96932 C 43.82411 192.06984 37.17589 192.06984 33.075387 187.96932 C 28.974864 183.86881 28.974864 177.22059 33.075387 173.12009 C 37.17589 169.01957 43.82411 169.01957 47.924613 173.12009 M 147.92461 173.12009 C 152.02514 177.22059 152.02514 183.86881 147.92461 187.96932 C 143.82411 192.06984 137.17589 192.06984 133.07539 187.96932 C 128.974864 183.86881 128.974864 177.22059 133.07539 173.12009 C 137.17589 169.01957 143.82411 169.01957 147.92461 173.12009 M 75.14008 57.044702 L 32 57.044702 C 14.326888 57.044702 0 71.37159 0 89.0447 L 0 165.0447 C 0 182.71781 14.326888 197.0447 32 197.0447 L 147 197.0447 C 164.67311 197.0447 179 182.71781 179 165.0447 L 179 89.0447 C 179 71.37159 164.67311 57.044702 147 57.044702 C 147 57.044702 147 57.044702 147 57.044702 L 106.222584 57.044702 L 125.590835 8.928932 C 126.931345 5.5987574 125.3184 1.8124197 121.98823 .47190995 C 118.658054 -.86859976 114.871716 .74434234 113.531206 4.074517 L 92.208886 57.044704 L 91.51634 57.044702 L 55.417406 9.922948 C 53.234285 7.0732093 49.154346 6.5328095 46.304607 8.715931 L 46.304607 8.715931 L 46.304607 8.715931 C 43.454869 10.8990525 42.91447 14.978992 45.09759 17.82873 C 45.09759 17.82873 45.09759 17.82873 45.09759 17.82873 Z" stroke="black" stroke-linecap="round" stroke-linejoin="round" stroke-width="1"/><path d="M 59.59798 183.71493 C 62.845743 183.85 66.137753 182.67768 68.617456 180.19798 L 175.47258 73.34285 C 180.17581 68.639627 180.17581 61.014198 175.47258 56.310976 C 175.47258 56.310976 175.47258 56.310976 175.47258 56.310976 C 170.76936 51.607753 163.14393 51.607753 158.44071 56.310976 L 59.598105 155.15358 L 24.843562 120.39903 C 20.14034 115.69581 12.51491 115.69581 7.811688 120.39903 C 3.1084657 125.102255 3.1084657 132.727684 7.811688 137.43091 C 7.811688 137.43091 7.811688 137.43091 7.811688 137.43091 L 50.57875 180.19797 C 53.05839 182.67761 56.350297 183.84993 59.59798 183.71493 Z" fill="#00ff6f"/><path d="M 59.59798 183.71493 C 62.845743 183.85 66.137753 182.67768 68.617456 180.19798 L 175.47258 73.34285 C 180.17581 68.639627 180.17581 61.014198 175.47258 56.310976 C 175.47258 56.310976 175.47258 56.310976 175.47258 56.310976 C 170.76936 51.607753 163.14393 51.607753 158.44071 56.310976 L 59.598105 155.15358 L 24.843562 120.39903 C 20.14034 115.69581 12.51491 115.69581 7.811688 120.39903 C 3.1084657 125.102255 3.1084657 132.727684 7.811688 137.43091 C 7.811688 137.43091 7.811688 137.43091 7.811688 137.43091 L 50.57875 180.19797 C 53.05839 182.67761 56.350297 183.84993 59.59798 183.71493 Z" stroke="black" stroke-linecap="round" stroke-linejoin="round" stroke-width="1"/></g></g></svg>